<?xml version="1.0" encoding="UTF-8" standalone="no"?>
<!-- Created with Inkscape (http://www.inkscape.org/) -->

<svg
   width="24"
   height="24"
   viewBox="0 0 24 24"
   version="1.1"
   id="svg5"
   inkscape:version="1.2.2 (b0a8486541, 2022-12-01)"
   sodipodi:docname="supply-insufficient.svg"
   xmlns:inkscape="http://www.inkscape.org/namespaces/inkscape"
   xmlns:sodipodi="http://sodipodi.sourceforge.net/DTD/sodipodi-0.dtd"
   xmlns="http://www.w3.org/2000/svg"
   xmlns:svg="http://www.w3.org/2000/svg">
  <sodipodi:namedview
     id="namedview7"
     pagecolor="#ffffff"
     bordercolor="#666666"
     borderopacity="1.0"
     inkscape:showpageshadow="2"
     inkscape:pageopacity="0.0"
     inkscape:pagecheckerboard="0"
     inkscape:deskcolor="#d1d1d1"
     inkscape:document-units="mm"
     showgrid="true"
     inkscape:zoom="41.403919"
     inkscape:cx="11.17044"
     inkscape:cy="10.07151"
     inkscape:window-width="2560"
     inkscape:window-height="1369"
     inkscape:window-x="2552"
     inkscape:window-y="-8"
     inkscape:window-maximized="1"
     inkscape:current-layer="layer2"
     showguides="true">
    <inkscape:grid
       type="xygrid"
       id="grid10087"
       empspacing="2"
       spacingx="0.5"
       spacingy="0.5"
       originx="0"
       originy="0" />
    <sodipodi:guide
       position="-1.5,19.5"
       orientation="0,-1"
       id="guide27473"
       inkscape:locked="false" />
    <sodipodi:guide
       position="-2,15.5"
       orientation="0,-1"
       id="guide27475"
       inkscape:locked="false" />
    <sodipodi:guide
       position="-0.5,12"
       orientation="0,-1"
       id="guide27477"
       inkscape:locked="false" />
    <sodipodi:guide
       position="6.5,24"
       orientation="1,0"
       id="guide28967"
       inkscape:locked="false" />
  </sodipodi:namedview>
  <defs
     id="defs2"/>
  <g
     inkscape:groupmode="layer"
     id="layer2"
     inkscape:label="None">
     <g style="fill:none;stroke:#000000;stroke-width:0.865;stroke-opacity:0.6">
    <path
       id="none-pip"
       d="M 2 10.5 a 1.5 1.5 0 0 0 -1.5 1.5 a 1.5 1.5 0 0 0 1.5 1.5 l 5 0 a 1.5 1.5 0 0 0 1.5 -1.5 a 1.5 1.5 0 0 0 -1.5 -1.5 l -5 0 z " />
    <path
       id="none-pip-45"
       transform="rotate(45 12 12)"
       d="M 2 10.5 a 1.5 1.5 0 0 0 -1.5 1.5 a 1.5 1.5 0 0 0 1.5 1.5 l 5 0 a 1.5 1.5 0 0 0 1.5 -1.5 a 1.5 1.5 0 0 0 -1.5 -1.5 l -5 0 z " />
    <path
       id="none-pip-90"
       transform="rotate(90 12 12)"
       d="M 2 10.5 a 1.5 1.5 0 0 0 -1.5 1.5 a 1.5 1.5 0 0 0 1.5 1.5 l 5 0 a 1.5 1.5 0 0 0 1.5 -1.5 a 1.5 1.5 0 0 0 -1.5 -1.5 l -5 0 z " />
    <path
       id="none-pip-135"
       transform="rotate(135 12 12)"
       d="M 2 10.5 a 1.5 1.5 0 0 0 -1.5 1.5 a 1.5 1.5 0 0 0 1.5 1.5 l 5 0 a 1.5 1.5 0 0 0 1.5 -1.5 a 1.5 1.5 0 0 0 -1.5 -1.5 l -5 0 z " />
    <path
       id="none-pip-180"
       transform="rotate(180 12 12)"
       d="M 2 10.5 a 1.5 1.5 0 0 0 -1.5 1.5 a 1.5 1.5 0 0 0 1.5 1.5 l 5 0 a 1.5 1.5 0 0 0 1.5 -1.5 a 1.5 1.5 0 0 0 -1.5 -1.5 l -5 0 z " />
    <path
       id="none-pip-225"
       transform="rotate(225 12 12)"
       d="M 2 10.5 a 1.5 1.5 0 0 0 -1.5 1.5 a 1.5 1.5 0 0 0 1.5 1.5 l 5 0 a 1.5 1.5 0 0 0 1.5 -1.5 a 1.5 1.5 0 0 0 -1.5 -1.5 l -5 0 z " />
    <path
       id="none-pip-270"
       transform="rotate(270 12 12)"
       d="M 2 10.5 a 1.5 1.5 0 0 0 -1.5 1.5 a 1.5 1.5 0 0 0 1.5 1.5 l 5 0 a 1.5 1.5 0 0 0 1.5 -1.5 a 1.5 1.5 0 0 0 -1.5 -1.5 l -5 0 z " />
    <path
       id="none-pip-315"
       transform="rotate(315 12 12)"
       d="M 2 10.5 a 1.5 1.5 0 0 0 -1.5 1.5 a 1.5 1.5 0 0 0 1.5 1.5 l 5 0 a 1.5 1.5 0 0 0 1.5 -1.5 a 1.5 1.5 0 0 0 -1.5 -1.5 l -5 0 z " />
    </g>
  </g>
  <g
     inkscape:label="Box"
     inkscape:groupmode="layer"
     id="layer1"
     style="display:none">
    <path
       style="display:inline;fill:#debe94;fill-opacity:1;stroke:#000000;stroke-width:1px;stroke-linecap:butt;stroke-linejoin:miter;stroke-opacity:1"
       d="m 0.5,15.5 v -7 l 6,-4 6,4 v 7 l -6,4 z"
       id="path27099"
       sodipodi:nodetypes="ccccccc"
       inkscape:label="box-back" />
    <path
       style="fill:none;stroke:#000000;stroke-width:1px;stroke-linecap:butt;stroke-linejoin:miter;stroke-opacity:1"
       d="m 0.5,8.5 6,3.5 6,-3.5"
       id="path27469"
       inkscape:label="inner-lines"
       sodipodi:nodetypes="ccc" />
    <path
       style="fill:none;stroke:#000000;stroke-width:1px;stroke-linecap:butt;stroke-linejoin:miter;stroke-opacity:1"
       d="m 6.5,12 v 7.5"
       id="path27471"
       sodipodi:nodetypes="cc" />
    <path
       style="fill:none;stroke:#000000;stroke-width:1px;stroke-linecap:butt;stroke-linejoin:miter;stroke-opacity:1"
       d="M 9,6.5 3.5,10 v 3"
       id="path295"
       sodipodi:nodetypes="ccc" />
  </g>
</svg>
