<?xml version="1.0" encoding="UTF-8" standalone="no"?>

<svg
   version="1.1"
   xmlns="http://www.w3.org/2000/svg"
   xmlns:svg="http://www.w3.org/2000/svg">
  <defs>
    <svg id="popularity-veryHigh" width="24" height="24">
      <circle
        style="fill:#ffc76b;stroke-width:1;stroke:#000000;stroke-opacity:1;stroke-dasharray:none"
        cx="12" cy="12" r="11.5" />
      <circle
        style="fill:none;fill-opacity:1;stroke:#000000;stroke-width:1.5;stroke-dasharray:none;stroke-opacity:1"
        cx="8" cy="8.5" r="2.5" />
      <circle
        style="fill:none;fill-opacity:1;stroke:#000000;stroke-width:1.5;stroke-dasharray:none;stroke-opacity:1"
        cx="16" cy="8.5" r="2.5" />
      <path
        style="fill:none;stroke:#000000;stroke-width:2px;stroke-linecap:butt;stroke-linejoin:miter;stroke-opacity:1"
        d="m 5.7808688,15.25 c 4,5 8.0000002,5 12.0000002,0" />
    </svg>
    <svg id="popularity-high" width="24" height="24">
      <circle
        style="fill:#ffc76b;stroke-width:1;stroke:#000000;stroke-opacity:1;stroke-dasharray:none"
        cx="12" cy="12" r="11.5" />
      <ellipse
        style="fill:#000000;fill-opacity:1;stroke:none;stroke-width:1;stroke-dasharray:none;stroke-opacity:1"
        cx="8" cy="8.5" rx="1.5" ry="3" />
      <ellipse
        style="fill:#000000;fill-opacity:1;stroke:none;stroke-width:1;stroke-dasharray:none;stroke-opacity:1"
        cx="16" cy="8.5" rx="1.5" ry="3" />
      <path
        style="fill:none;stroke:#000000;stroke-width:2px;stroke-linecap:butt;stroke-linejoin:miter;stroke-opacity:1"
        d="m 5.7957974,16.1875 c 4.2191316,3.75 8.2191316,3.75 12.0000006,0" />
    </svg>
    <svg id="popularity-average" width="24" height="24">
      <circle
        style="fill:#9ccba5;stroke-width:1;stroke:#000000;stroke-opacity:1;stroke-dasharray:none"
        cx="12" cy="12" r="11.5" />
      <ellipse
        style="fill:#000000;fill-opacity:1;stroke:none;stroke-width:1;stroke-dasharray:none;stroke-opacity:1"
        cx="8" cy="8.5" rx="1.5" ry="3" />
      <ellipse
        style="fill:#000000;fill-opacity:1;stroke:none;stroke-width:1;stroke-dasharray:none;stroke-opacity:1"
        cx="16" cy="8.5" rx="1.5" ry="3" />
      <path
        style="fill:none;stroke:#000000;stroke-width:2;stroke-linecap:butt;stroke-linejoin:miter;stroke-dasharray:none;stroke-opacity:1"
        d="M 6,18 H 18" />
    </svg>
    <svg id="popularity-low" width="24" height="24">
      <circle
        style="fill:#cea2e7;stroke-width:1;stroke:#000000;stroke-opacity:1;stroke-dasharray:none"
        cx="12" cy="12" r="11.5" />
      <ellipse
        style="fill:#000000;fill-opacity:1;stroke:none;stroke-width:1;stroke-dasharray:none;stroke-opacity:1"
        cx="8" cy="8.5" rx="1.5" ry="3" />
      <ellipse
        style="fill:#000000;fill-opacity:1;stroke:none;stroke-width:1;stroke-dasharray:none;stroke-opacity:1"
        cx="16" cy="8.5" rx="1.5" ry="3" />
      <path
        style="fill:none;stroke:#000000;stroke-width:2px;stroke-linecap:butt;stroke-linejoin:miter;stroke-opacity:1"
        d="m 5.7957974,19.252561 c 4.2191316,-3.75 8.2191316,-3.75 12.0000006,0" />
      <path
        style="fill:none;stroke:#000000;stroke-width:1px;stroke-linecap:butt;stroke-linejoin:miter;stroke-opacity:1"
        d="M 17.5,11 16,14 c 0,1 0.5,1.5 1.5,1.5 1,0 1.5,-0.5 1.5,-1.5 z" />
    </svg>
    <svg id="supply-overflowing" width="37" height="24" viewBox="0 0 37 24">
      <defs>
        <g id="supply-box">
          <path
            style="display:inline;fill:#debe94;fill-opacity:1;stroke:#000000;stroke-width:1px;stroke-linecap:butt;stroke-linejoin:miter;stroke-opacity:1"
            d="m 0.5,15.5 v -7 l 6,-4 6,4 v 7 l -6,4 z" />
          <path
            style="fill:none;stroke:#000000;stroke-width:1px;stroke-linecap:butt;stroke-linejoin:miter;stroke-opacity:1"
            d="m 0.5,8.5 6,3.5 6,-3.5" />
          <path
            style="fill:none;stroke:#000000;stroke-width:1px;stroke-linecap:butt;stroke-linejoin:miter;stroke-opacity:1"
            d="m 6.5,12 v 7.5" />
          <path
            style="fill:none;stroke:#000000;stroke-width:1px;stroke-linecap:butt;stroke-linejoin:miter;stroke-opacity:1"
            d="M 9,6.5 3.5,10 v 3" />
        </g>
      </defs>
      <use href="#supply-box"/>
      <use href="#supply-box" transform="translate(8,0)"/>
      <use href="#supply-box" transform="translate(16,0)"/>
      <use href="#supply-box" transform="translate(24,0)"/>
    </svg>
    <svg id="supply-surplus" width="37" height="24" viewBox="0 0 37 24">
      <defs>
        <g id="supply-box">
          <path
            style="display:inline;fill:#debe94;fill-opacity:1;stroke:#000000;stroke-width:1px;stroke-linecap:butt;stroke-linejoin:miter;stroke-opacity:1"
            d="m 0.5,15.5 v -7 l 6,-4 6,4 v 7 l -6,4 z" />
          <path
            style="fill:none;stroke:#000000;stroke-width:1px;stroke-linecap:butt;stroke-linejoin:miter;stroke-opacity:1"
            d="m 0.5,8.5 6,3.5 6,-3.5" />
          <path
            style="fill:none;stroke:#000000;stroke-width:1px;stroke-linecap:butt;stroke-linejoin:miter;stroke-opacity:1"
            d="m 6.5,12 v 7.5" />
          <path
            style="fill:none;stroke:#000000;stroke-width:1px;stroke-linecap:butt;stroke-linejoin:miter;stroke-opacity:1"
            d="M 9,6.5 3.5,10 v 3" />
        </g>
      </defs>
      <use href="#supply-box"/>
      <use href="#supply-box" transform="translate(8,0)"/>
      <use href="#supply-box" transform="translate(16,0)"/>
    </svg>
    <svg id="supply-sufficient" width="37" height="24" viewBox="0 0 37 24">
      <defs>
        <g id="supply-box">
          <path
            style="display:inline;fill:#debe94;fill-opacity:1;stroke:#000000;stroke-width:1px;stroke-linecap:butt;stroke-linejoin:miter;stroke-opacity:1"
            d="m 0.5,15.5 v -7 l 6,-4 6,4 v 7 l -6,4 z" />
          <path
            style="fill:none;stroke:#000000;stroke-width:1px;stroke-linecap:butt;stroke-linejoin:miter;stroke-opacity:1"
            d="m 0.5,8.5 6,3.5 6,-3.5" />
          <path
            style="fill:none;stroke:#000000;stroke-width:1px;stroke-linecap:butt;stroke-linejoin:miter;stroke-opacity:1"
            d="m 6.5,12 v 7.5" />
          <path
            style="fill:none;stroke:#000000;stroke-width:1px;stroke-linecap:butt;stroke-linejoin:miter;stroke-opacity:1"
            d="M 9,6.5 3.5,10 v 3" />
        </g>
      </defs>
      <use href="#supply-box"/>
      <use href="#supply-box" transform="translate(8,0)"/>
    </svg>
    <svg id="supply-insufficient" width="37" height="24" viewBox="0 0 37 24">
      <path
        style="display:inline;fill:#debe94;fill-opacity:1;stroke:#000000;stroke-width:1px;stroke-linecap:butt;stroke-linejoin:miter;stroke-opacity:1"
        d="m 0.5,15.5 v -7 l 6,-4 6,4 v 7 l -6,4 z" />
      <path
        style="fill:none;stroke:#000000;stroke-width:1px;stroke-linecap:butt;stroke-linejoin:miter;stroke-opacity:1"
        d="m 0.5,8.5 6,3.5 6,-3.5" />
      <path
        style="fill:none;stroke:#000000;stroke-width:1px;stroke-linecap:butt;stroke-linejoin:miter;stroke-opacity:1"
        d="m 6.5,12 v 7.5" />
      <path
        style="fill:none;stroke:#000000;stroke-width:1px;stroke-linecap:butt;stroke-linejoin:miter;stroke-opacity:1"
        d="M 9,6.5 3.5,10 v 3" />
    </svg>
    <svg id="supply-nonexistent" width="27" height="16" viewBox="0 0 27 16">
      <!-- Legit empty for now -->
    </svg>
    <svg id="demandShift-none" width="24" height="24" viewBox="0 0 24 24">
      <path
        style="fill:#ffc968;fill-opacity:1;stroke:#000000;stroke-width:1px;stroke-linecap:butt;stroke-linejoin:miter;stroke-opacity:1"
        d="m 21.5,12.5 -7,-6 v 3 h -11 v 6 h 11 v 3 z" />
    </svg>
    <svg id="demandShift-decreasing" width="24" height="24" viewBox="0 0 24 24">
      <path
        style="fill:#ff7272;fill-opacity:1;stroke:#000000;stroke-width:1px;stroke-linecap:butt;stroke-linejoin:miter;stroke-opacity:1"
        d="m 21.5,12.5 -7,-6 v 3 h -11 v 6 h 11 v 3 z"
        transform="rotate(90,12.5,12.5)" />
    </svg>
    <svg id="demandShift-increasing" width="24" height="24" viewBox="0 0 24 24">
      <path
        style="fill:#6899ff;fill-opacity:1;stroke:#000000;stroke-width:1px;stroke-linecap:butt;stroke-linejoin:miter;stroke-opacity:1"
        d="m 12.5,1.5 -6,7 h 3 v 11 h 6 v -11 h 3 z" />
    </svg>
    <svg id="demandShift-skyrocketing" width="24" height="24" viewBox="0 0 24 24">
      <path
        style="fill:#6899ff;fill-opacity:1;stroke:#000000;stroke-width:1px;stroke-linecap:butt;stroke-linejoin:miter;stroke-opacity:1"
        d="m 18,1.5 -5,7 h 2.5 v 11 h 5 V 8.5 H 23 Z" />
      <path
        style="fill:#6899ff;fill-opacity:1;stroke:#000000;stroke-width:1px;stroke-linecap:butt;stroke-linejoin:miter;stroke-opacity:1"
        d="m 6,1.5 -5,7 h 2.5 v 11 h 5 V 8.5 H 11 Z" />
    </svg>
    <svg id="demandShift-plummeting" width="24" height="24" viewBox="0 0 24 24">
      <path
        style="fill:#ff7272;fill-opacity:1;stroke:#000000;stroke-width:1px;stroke-linecap:butt;stroke-linejoin:miter;stroke-opacity:1"
        d="m 18,21.5 -5,-7 h 2.5 V 3.5000002 h 5 V 14.5 H 23 Z" />
      <path
        style="fill:#ff7272;fill-opacity:1;stroke:#000000;stroke-width:1px;stroke-linecap:butt;stroke-linejoin:miter;stroke-opacity:1"
        d="m 6,21.5 -5,-7 H 3.5 V 3.5000002 h 5 V 14.5 H 11 Z" />
    </svg>
  </defs>
</svg>
