<?xml version="1.0" encoding="UTF-8" standalone="no"?>

<svg
   version="1.1"
   xmlns="http://www.w3.org/2000/svg"
   xmlns:svg="http://www.w3.org/2000/svg">
  <defs>
    <svg id="popularity-veryHigh" width="16" height="16">
      <ellipse
        style="fill:#ffc76b;stroke-width:1;stroke:#000000;stroke-opacity:1;stroke-dasharray:none"
        cx="8" cy="8" rx="7.5" ry="7.5" />
      <ellipse
        style="fill:none;stroke:#000000;stroke-width:1;stroke-dasharray:none;stroke-opacity:1;fill-opacity:1"
        cx="5.5" cy="6" rx="1.5" ry="1.5" />
      <ellipse
        style="fill:none;fill-opacity:1;stroke:#000000;stroke-width:1;stroke-dasharray:none;stroke-opacity:1"
        cx="10.5" cy="6" rx="1.5" ry="1.5" />
      <path
        style="fill:none;stroke:#000000;stroke-width:2px;stroke-linecap:butt;stroke-linejoin:miter;stroke-opacity:1"
        d="m 4.5,10.5 c 2.5,3 4.5,3 7,0" />
    </svg>
    <svg id="popularity-high" width="16" height="16">
      <ellipse
        style="fill:#ffc76b;stroke-width:1;stroke:#000000;stroke-opacity:1;stroke-dasharray:none"
        cx="8" cy="8" rx="7.5" ry="7.5" />
      <ellipse
        style="fill:#000000;stroke:none;stroke-width:1;stroke-dasharray:none;stroke-opacity:1;fill-opacity:1"
        cx="5.5" cy="6" rx="1" ry="1.5" />
      <ellipse
        style="fill:#000000;fill-opacity:1;stroke:none;stroke-width:1;stroke-dasharray:none;stroke-opacity:1"
        cx="10.5" cy="6" rx="1" ry="1.5" />
      <path
        style="fill:none;stroke:#000000;stroke-width:1.5px;stroke-linecap:butt;stroke-linejoin:miter;stroke-opacity:1"
        d="m 4.5,11 c 2.5,1.5 4.5,1.5 7,0" />
    </svg>
    <svg id="popularity-average" width="16" height="16">
      <ellipse
        style="fill:#9ccba5;stroke-width:1;stroke:#000000;stroke-opacity:1;stroke-dasharray:none"
        cx="8" cy="8" rx="7.5" ry="7.5" />
      <ellipse
        style="fill:#000000;stroke:none;stroke-width:1;stroke-dasharray:none;stroke-opacity:1;fill-opacity:1"
        cx="5.5" cy="6" rx="1" ry="1.5" />
      <ellipse
        style="fill:#000000;fill-opacity:1;stroke:none;stroke-width:1;stroke-dasharray:none;stroke-opacity:1"
        cx="10.5" cy="6" rx="1" ry="1.5" />
      <path
        style="fill:none;stroke:#000000;stroke-width:1.5px;stroke-linecap:butt;stroke-linejoin:miter;stroke-opacity:1"
        d="m 5,11.5 6,0" />
    </svg>
    <svg id="popularity-low" width="16" height="16">
      <ellipse
        style="fill:#cea2e7;stroke-width:1;stroke:#000000;stroke-opacity:1;stroke-dasharray:none"
        cx="8" cy="8" rx="7.5" ry="7.5" />
      <ellipse
        style="fill:#000000;stroke:none;stroke-width:1;stroke-dasharray:none;stroke-opacity:1;fill-opacity:1"
        cx="5.5" cy="6" rx="1" ry="1.5" />
      <ellipse
        style="fill:#000000;fill-opacity:1;stroke:none;stroke-width:1;stroke-dasharray:none;stroke-opacity:1"
        cx="10.5" cy="6" rx="1" ry="1.5" />
      <path
        style="fill:none;stroke:#000000;stroke-width:1.5px;stroke-linecap:butt;stroke-linejoin:miter;stroke-opacity:1"
        d="m 4.5,12.23188 c 2.5,-1.5 4.5,-1.5 7,0" />
    </svg>
    <svg id="supply-overflowing" width="27" height="16" viewBox="0 0 27 16">
      <defs>
        <g id="supply-box">
          <path
            style="display:inline;fill:#debe94;fill-opacity:1;stroke:#000000;stroke-width:1px;stroke-linecap:butt;stroke-linejoin:miter;stroke-opacity:1"
            d="m 0.5,10.5 v -5 l 4,-3 4,3 v 5 l -4,3 z" />
          <path
            style="fill:none;stroke:#000000;stroke-width:1px;stroke-linecap:butt;stroke-linejoin:miter;stroke-opacity:1"
            d="m 0.5,5.5 4,3 4,-3" />
          <path
            style="fill:none;stroke:#000000;stroke-width:1px;stroke-linecap:butt;stroke-linejoin:miter;stroke-opacity:1"
            d="m 4.5,8.5 v 5" />
          <path
            style="fill:none;stroke:#000000;stroke-width:1px;stroke-linecap:butt;stroke-linejoin:miter;stroke-opacity:1"
            d="m 6.5,4 -4,3 v 2" />
        </g>
      </defs>
      <use href="#supply-box"/>
      <use href="#supply-box" transform="translate(6,0)"/>
      <use href="#supply-box" transform="translate(12,0)"/>
      <use href="#supply-box" transform="translate(18,0)"/>
    </svg>
    <svg id="supply-surplus" width="27" height="16" viewBox="0 0 27 16">
      <defs>
        <g id="supply-box">
          <path
            style="display:inline;fill:#debe94;fill-opacity:1;stroke:#000000;stroke-width:1px;stroke-linecap:butt;stroke-linejoin:miter;stroke-opacity:1"
            d="m 0.5,10.5 v -5 l 4,-3 4,3 v 5 l -4,3 z" />
          <path
            style="fill:none;stroke:#000000;stroke-width:1px;stroke-linecap:butt;stroke-linejoin:miter;stroke-opacity:1"
            d="m 0.5,5.5 4,3 4,-3" />
          <path
            style="fill:none;stroke:#000000;stroke-width:1px;stroke-linecap:butt;stroke-linejoin:miter;stroke-opacity:1"
            d="m 4.5,8.5 v 5" />
          <path
            style="fill:none;stroke:#000000;stroke-width:1px;stroke-linecap:butt;stroke-linejoin:miter;stroke-opacity:1"
            d="m 6.5,4 -4,3 v 2" />
        </g>
      </defs>
      <use href="#supply-box"/>
      <use href="#supply-box" transform="translate(6,0)"/>
      <use href="#supply-box" transform="translate(12,0)"/>
    </svg>
    <svg id="supply-sufficient" width="27" height="16" viewBox="0 0 27 16">
      <defs>
        <g id="supply-box">
          <path
            style="display:inline;fill:#debe94;fill-opacity:1;stroke:#000000;stroke-width:1px;stroke-linecap:butt;stroke-linejoin:miter;stroke-opacity:1"
            d="m 0.5,10.5 v -5 l 4,-3 4,3 v 5 l -4,3 z" />
          <path
            style="fill:none;stroke:#000000;stroke-width:1px;stroke-linecap:butt;stroke-linejoin:miter;stroke-opacity:1"
            d="m 0.5,5.5 4,3 4,-3" />
          <path
            style="fill:none;stroke:#000000;stroke-width:1px;stroke-linecap:butt;stroke-linejoin:miter;stroke-opacity:1"
            d="m 4.5,8.5 v 5" />
          <path
            style="fill:none;stroke:#000000;stroke-width:1px;stroke-linecap:butt;stroke-linejoin:miter;stroke-opacity:1"
            d="m 6.5,4 -4,3 v 2" />
        </g>
      </defs>
      <use href="#supply-box"/>
      <use href="#supply-box" transform="translate(6,0)"/>
    </svg>
    <svg id="supply-insufficient" width="27" height="16" viewBox="0 0 27 16">
      <path
        style="display:inline;fill:#debe94;fill-opacity:1;stroke:#000000;stroke-width:1px;stroke-linecap:butt;stroke-linejoin:miter;stroke-opacity:1"
        d="m 0.5,10.5 v -5 l 4,-3 4,3 v 5 l -4,3 z" />
      <path
        style="fill:none;stroke:#000000;stroke-width:1px;stroke-linecap:butt;stroke-linejoin:miter;stroke-opacity:1"
        d="m 0.5,5.5 4,3 4,-3" />
      <path
        style="fill:none;stroke:#000000;stroke-width:1px;stroke-linecap:butt;stroke-linejoin:miter;stroke-opacity:1"
        d="m 4.5,8.5 v 5" />
      <path
        style="fill:none;stroke:#000000;stroke-width:1px;stroke-linecap:butt;stroke-linejoin:miter;stroke-opacity:1"
        d="m 6.5,4 -4,3 v 2" />
    </svg>
    <svg id="supply-nonexistent" width="27" height="16" viewBox="0 0 27 16">
      <!-- Legit empty for now -->
    </svg>
    <svg id="demandShift-none" width="24" height="24" viewBox="0 0 24 24">
      <path
        style="fill:#ffc968;fill-opacity:1;stroke:#000000;stroke-width:1px;stroke-linecap:butt;stroke-linejoin:miter;stroke-opacity:1"
        d="m 21.5,12.5 -7,-6 v 3 h -11 v 6 h 11 v 3 z" />
    </svg>
    <svg id="demandShift-decreasing" width="24" height="24" viewBox="0 0 24 24">
      <path
        style="fill:#ff7272;fill-opacity:1;stroke:#000000;stroke-width:1px;stroke-linecap:butt;stroke-linejoin:miter;stroke-opacity:1"
        d="m 21.5,12.5 -7,-6 v 3 h -11 v 6 h 11 v 3 z"
        transform="rotate(90,12.5,12.5)" />
    </svg>
    <svg id="demandShift-increasing" width="24" height="24" viewBox="0 0 24 24">
      <path
        style="fill:#6899ff;fill-opacity:1;stroke:#000000;stroke-width:1px;stroke-linecap:butt;stroke-linejoin:miter;stroke-opacity:1"
        d="m 12.5,1.5 -6,7 h 3 v 11 h 6 v -11 h 3 z" />
    </svg>
    <svg id="demandShift-skyrocketing" width="24" height="24" viewBox="0 0 24 24">
      <path
        style="fill:#6899ff;fill-opacity:1;stroke:#000000;stroke-width:1px;stroke-linecap:butt;stroke-linejoin:miter;stroke-opacity:1"
        d="m 18,1.5 -5,7 h 2.5 v 11 h 5 V 8.5 H 23 Z" />
      <path
        style="fill:#6899ff;fill-opacity:1;stroke:#000000;stroke-width:1px;stroke-linecap:butt;stroke-linejoin:miter;stroke-opacity:1"
        d="m 6,1.5 -5,7 h 2.5 v 11 h 5 V 8.5 H 11 Z" />
    </svg>
    <svg id="demandShift-plummeting" width="24" height="24" viewBox="0 0 24 24">
      <path
        style="fill:#ff7272;fill-opacity:1;stroke:#000000;stroke-width:1px;stroke-linecap:butt;stroke-linejoin:miter;stroke-opacity:1"
        d="m 18,21.5 -5,-7 h 2.5 V 3.5000002 h 5 V 14.5 H 23 Z" />
      <path
        style="fill:#ff7272;fill-opacity:1;stroke:#000000;stroke-width:1px;stroke-linecap:butt;stroke-linejoin:miter;stroke-opacity:1"
        d="m 6,21.5 -5,-7 H 3.5 V 3.5000002 h 5 V 14.5 H 11 Z" />
    </svg>
  </defs>
</svg>
